<svg width="474" height="347" viewBox="0 0 474 347" fill="none" xmlns="http://www.w3.org/2000/svg">
<path d="M268 40H246V185H268V40Z" fill="#DFDFDF"/>
<path d="M246 79V73H257H268V79M246 79V85H257H268M246 79H257H268M268 79V85M268 85V91M268 91V97M268 91H257H246V97M246 97V103M246 97H257H268M268 97V103M268 103V109M268 103H257H246M246 103V109M246 109V115H257H268V109M246 109H257H268" stroke="black"/>
<path d="M142 270C153.628 305.98 161.206 313.826 195 331L244 316L205 164L181 120C181 120 166.404 134.072 156 142C144.795 150.538 137.06 159.827 134 183C130.94 206.173 130.371 234.02 142 270Z" fill="#E5E5E5" stroke="black"/>
<path d="M207 307C209.58 324.073 195 331 195 331C195 331 240.158 350.19 269 345C297.379 339.894 311.074 335.179 328 312C339.672 296.016 340 210 340 210C340 210 332.276 68.0239 322 54C311.724 39.9761 268 40 268 40V184H246V40C246 40 208.961 42.1733 194 54C183.042 62.6628 181 122 181 122C181 122 174.49 184.522 181 224C186.516 257.448 205.341 296.025 207 307Z" fill="#C4C4C4" stroke="black"/>
<path d="M266.756 149.244L257 158.512L247.244 149.244L257 139L266.756 149.244Z" stroke="#868686"/>
<path d="M268 40H246L257 50L268 40Z" stroke="#868686"/>
<path d="M399.442 83.186C400.086 83.186 400.637 83.2793 401.094 83.466C401.551 83.6433 401.995 83.9233 402.424 84.306L401.696 85.118C401.332 84.8287 400.973 84.6187 400.618 84.488C400.273 84.348 399.899 84.278 399.498 84.278C398.994 84.278 398.579 84.3947 398.252 84.628C397.925 84.8613 397.762 85.202 397.762 85.65C397.762 85.93 397.818 86.168 397.93 86.364C398.042 86.5507 398.247 86.7233 398.546 86.882C398.854 87.0407 399.297 87.2087 399.876 87.386C400.483 87.5727 400.987 87.7733 401.388 87.988C401.789 88.2027 402.111 88.5013 402.354 88.884C402.606 89.2573 402.732 89.7333 402.732 90.312C402.732 90.872 402.592 91.3667 402.312 91.796C402.041 92.2253 401.645 92.5613 401.122 92.804C400.609 93.0467 399.997 93.168 399.288 93.168C397.953 93.168 396.861 92.7527 396.012 91.922L396.74 91.11C397.132 91.4273 397.529 91.67 397.93 91.838C398.331 91.9967 398.779 92.076 399.274 92.076C399.871 92.076 400.366 91.9313 400.758 91.642C401.15 91.3433 401.346 90.914 401.346 90.354C401.346 90.0367 401.285 89.7753 401.164 89.57C401.043 89.3553 400.833 89.164 400.534 88.996C400.245 88.828 399.82 88.66 399.26 88.492C398.271 88.1933 397.547 87.834 397.09 87.414C396.633 86.994 396.404 86.4247 396.404 85.706C396.404 85.2207 396.53 84.7867 396.782 84.404C397.043 84.0213 397.403 83.7227 397.86 83.508C398.327 83.2933 398.854 83.186 399.442 83.186ZM407.309 85.454C407.748 85.454 408.149 85.5193 408.513 85.65C408.877 85.7713 409.227 85.972 409.563 86.252L408.947 87.064C408.686 86.8773 408.429 86.742 408.177 86.658C407.934 86.5647 407.664 86.518 407.365 86.518C406.768 86.518 406.301 86.756 405.965 87.232C405.638 87.708 405.475 88.4127 405.475 89.346C405.475 90.2793 405.638 90.97 405.965 91.418C406.292 91.8567 406.758 92.076 407.365 92.076C407.654 92.076 407.92 92.034 408.163 91.95C408.406 91.8567 408.676 91.712 408.975 91.516L409.563 92.356C408.891 92.8973 408.14 93.168 407.309 93.168C406.31 93.168 405.522 92.832 404.943 92.16C404.374 91.488 404.089 90.5593 404.089 89.374C404.089 88.59 404.22 87.904 404.481 87.316C404.742 86.728 405.111 86.2707 405.587 85.944C406.072 85.6173 406.646 85.454 407.309 85.454ZM414.513 85.454C414.774 85.454 415.017 85.482 415.241 85.538L415.003 86.798C414.779 86.742 414.564 86.714 414.359 86.714C413.901 86.714 413.533 86.882 413.253 87.218C412.973 87.554 412.753 88.0767 412.595 88.786V93H411.307V85.622H412.413L412.539 87.12C412.735 86.5693 413.001 86.154 413.337 85.874C413.673 85.594 414.065 85.454 414.513 85.454ZM419.055 85.454C420.091 85.454 420.894 85.7993 421.463 86.49C422.042 87.1807 422.331 88.1187 422.331 89.304C422.331 90.0693 422.2 90.746 421.939 91.334C421.678 91.9127 421.3 92.3653 420.805 92.692C420.31 93.0093 419.722 93.168 419.041 93.168C418.005 93.168 417.198 92.8227 416.619 92.132C416.04 91.4413 415.751 90.5033 415.751 89.318C415.751 88.5527 415.882 87.8807 416.143 87.302C416.404 86.714 416.782 86.2613 417.277 85.944C417.772 85.6173 418.364 85.454 419.055 85.454ZM419.055 86.49C417.776 86.49 417.137 87.4327 417.137 89.318C417.137 91.194 417.772 92.132 419.041 92.132C420.31 92.132 420.945 91.1893 420.945 89.304C420.945 87.428 420.315 86.49 419.055 86.49ZM425.929 93.168C425.453 93.168 425.075 93.028 424.795 92.748C424.524 92.4587 424.389 92.0573 424.389 91.544V82.654L425.677 82.5V91.516C425.677 91.7213 425.71 91.8707 425.775 91.964C425.85 92.0573 425.971 92.104 426.139 92.104C426.316 92.104 426.475 92.076 426.615 92.02L426.951 92.916C426.643 93.084 426.302 93.168 425.929 93.168ZM430.03 93.168C429.554 93.168 429.176 93.028 428.896 92.748C428.626 92.4587 428.49 92.0573 428.49 91.544V82.654L429.778 82.5V91.516C429.778 91.7213 429.811 91.8707 429.876 91.964C429.951 92.0573 430.072 92.104 430.24 92.104C430.418 92.104 430.576 92.076 430.716 92.02L431.052 92.916C430.744 93.084 430.404 93.168 430.03 93.168ZM439.265 88.912H437.767V93H436.437V83.354H438.971C440.175 83.354 441.085 83.5827 441.701 84.04C442.326 84.4973 442.639 85.1787 442.639 86.084C442.639 86.756 442.466 87.302 442.121 87.722C441.776 88.142 441.253 88.4593 440.553 88.674L443.157 93H441.575L439.265 88.912ZM439.111 87.89C439.811 87.89 440.338 87.75 440.693 87.47C441.048 87.1807 441.225 86.7187 441.225 86.084C441.225 85.4867 441.043 85.0573 440.679 84.796C440.324 84.5253 439.75 84.39 438.957 84.39H437.767V87.89H439.111ZM446.132 85.622V93H444.844V85.622H446.132ZM445.474 82.08C445.744 82.08 445.964 82.164 446.132 82.332C446.3 82.5 446.384 82.71 446.384 82.962C446.384 83.214 446.3 83.424 446.132 83.592C445.964 83.7507 445.744 83.83 445.474 83.83C445.212 83.83 444.998 83.7507 444.83 83.592C444.662 83.424 444.578 83.214 444.578 82.962C444.578 82.71 444.662 82.5 444.83 82.332C444.998 82.164 445.212 82.08 445.474 82.08ZM454.745 85.958C454.465 86.0513 454.157 86.112 453.821 86.14C453.485 86.168 453.074 86.182 452.589 86.182C453.457 86.574 453.891 87.1947 453.891 88.044C453.891 88.7813 453.639 89.3833 453.135 89.85C452.631 90.3167 451.945 90.55 451.077 90.55C450.741 90.55 450.428 90.5033 450.139 90.41C450.027 90.4847 449.938 90.5873 449.873 90.718C449.808 90.8393 449.775 90.9653 449.775 91.096C449.775 91.4973 450.097 91.698 450.741 91.698H451.917C452.412 91.698 452.85 91.7867 453.233 91.964C453.616 92.1413 453.91 92.384 454.115 92.692C454.33 93 454.437 93.35 454.437 93.742C454.437 94.4607 454.143 95.0113 453.555 95.394C452.967 95.786 452.108 95.982 450.979 95.982C450.186 95.982 449.556 95.898 449.089 95.73C448.632 95.5713 448.305 95.3287 448.109 95.002C447.913 94.6753 447.815 94.2553 447.815 93.742H448.977C448.977 94.0407 449.033 94.274 449.145 94.442C449.257 94.6193 449.458 94.75 449.747 94.834C450.036 94.9273 450.447 94.974 450.979 94.974C451.754 94.974 452.304 94.876 452.631 94.68C452.967 94.4933 453.135 94.2087 453.135 93.826C453.135 93.4807 453.004 93.2193 452.743 93.042C452.482 92.8647 452.118 92.776 451.651 92.776H450.489C449.864 92.776 449.388 92.6453 449.061 92.384C448.744 92.1133 448.585 91.7773 448.585 91.376C448.585 91.1333 448.655 90.9 448.795 90.676C448.935 90.452 449.136 90.2513 449.397 90.074C448.968 89.85 448.65 89.5747 448.445 89.248C448.249 88.912 448.151 88.506 448.151 88.03C448.151 87.5353 448.272 87.092 448.515 86.7C448.767 86.308 449.108 86.0047 449.537 85.79C449.976 85.566 450.461 85.454 450.993 85.454C451.572 85.4633 452.057 85.4447 452.449 85.398C452.841 85.342 453.163 85.272 453.415 85.188C453.676 85.0947 453.994 84.964 454.367 84.796L454.745 85.958ZM450.993 86.378C450.508 86.378 450.13 86.532 449.859 86.84C449.598 87.1387 449.467 87.5353 449.467 88.03C449.467 88.534 449.602 88.94 449.873 89.248C450.144 89.5467 450.526 89.696 451.021 89.696C451.525 89.696 451.908 89.5513 452.169 89.262C452.44 88.9633 452.575 88.548 452.575 88.016C452.575 86.924 452.048 86.378 450.993 86.378ZM459.54 85.454C460.212 85.454 460.735 85.6547 461.108 86.056C461.491 86.4573 461.682 87.008 461.682 87.708V93H460.394V87.89C460.394 87.3673 460.292 86.9987 460.086 86.784C459.89 86.5693 459.601 86.462 459.218 86.462C458.836 86.462 458.495 86.574 458.196 86.798C457.898 87.022 457.618 87.3393 457.356 87.75V93H456.068V82.668L457.356 82.528V86.644C457.935 85.8507 458.663 85.454 459.54 85.454ZM467.995 92.664C467.51 93 466.959 93.168 466.343 93.168C465.718 93.168 465.228 92.9907 464.873 92.636C464.528 92.272 464.355 91.7493 464.355 91.068V86.616H463.067V85.622H464.355V83.956L465.643 83.802V85.622H467.393L467.253 86.616H465.643V91.012C465.643 91.3947 465.709 91.6747 465.839 91.852C465.979 92.02 466.208 92.104 466.525 92.104C466.815 92.104 467.141 92.006 467.505 91.81L467.995 92.664Z" fill="#272727"/>
<rect x="-0.5" y="0.5" width="17" height="17" rx="5.5" transform="matrix(-1 0 0 1 297 88)" fill="#63B1BC" stroke="#272727"/>
<path d="M468 97L448.887 97L358.867 97L298 97" stroke="#272727"/>
<rect x="216.5" y="88.5" width="17" height="17" rx="5.5" fill="#63B1BC" stroke="#272727"/>
<path d="M216 97L196.887 97L106.867 97L46 97" stroke="#272727"/>
<path d="M49.78 82.186C50.424 82.186 50.9747 82.2793 51.432 82.466C51.8893 82.6433 52.3327 82.9233 52.762 83.306L52.034 84.118C51.67 83.8287 51.3107 83.6187 50.956 83.488C50.6107 83.348 50.2373 83.278 49.836 83.278C49.332 83.278 48.9167 83.3947 48.59 83.628C48.2633 83.8613 48.1 84.202 48.1 84.65C48.1 84.93 48.156 85.168 48.268 85.364C48.38 85.5507 48.5853 85.7233 48.884 85.882C49.192 86.0407 49.6353 86.2087 50.214 86.386C50.8207 86.5727 51.3247 86.7733 51.726 86.988C52.1273 87.2027 52.4493 87.5013 52.692 87.884C52.944 88.2573 53.07 88.7333 53.07 89.312C53.07 89.872 52.93 90.3667 52.65 90.796C52.3793 91.2253 51.9827 91.5613 51.46 91.804C50.9467 92.0467 50.3353 92.168 49.626 92.168C48.2913 92.168 47.1993 91.7527 46.35 90.922L47.078 90.11C47.47 90.4273 47.8667 90.67 48.268 90.838C48.6693 90.9967 49.1173 91.076 49.612 91.076C50.2093 91.076 50.704 90.9313 51.096 90.642C51.488 90.3433 51.684 89.914 51.684 89.354C51.684 89.0367 51.6233 88.7753 51.502 88.57C51.3807 88.3553 51.1707 88.164 50.872 87.996C50.5827 87.828 50.158 87.66 49.598 87.492C48.6087 87.1933 47.8853 86.834 47.428 86.414C46.9707 85.994 46.742 85.4247 46.742 84.706C46.742 84.2207 46.868 83.7867 47.12 83.404C47.3813 83.0213 47.7407 82.7227 48.198 82.508C48.6647 82.2933 49.192 82.186 49.78 82.186ZM57.6469 84.454C58.0856 84.454 58.4869 84.5193 58.8509 84.65C59.2149 84.7713 59.5649 84.972 59.9009 85.252L59.2849 86.064C59.0236 85.8773 58.7669 85.742 58.5149 85.658C58.2722 85.5647 58.0016 85.518 57.7029 85.518C57.1056 85.518 56.6389 85.756 56.3029 86.232C55.9762 86.708 55.8129 87.4127 55.8129 88.346C55.8129 89.2793 55.9762 89.97 56.3029 90.418C56.6296 90.8567 57.0962 91.076 57.7029 91.076C57.9922 91.076 58.2582 91.034 58.5009 90.95C58.7436 90.8567 59.0142 90.712 59.3129 90.516L59.9009 91.356C59.2289 91.8973 58.4776 92.168 57.6469 92.168C56.6482 92.168 55.8596 91.832 55.2809 91.16C54.7116 90.488 54.4269 89.5593 54.4269 88.374C54.4269 87.59 54.5576 86.904 54.8189 86.316C55.0802 85.728 55.4489 85.2707 55.9249 84.944C56.4102 84.6173 56.9842 84.454 57.6469 84.454ZM64.8505 84.454C65.1118 84.454 65.3545 84.482 65.5785 84.538L65.3405 85.798C65.1165 85.742 64.9018 85.714 64.6965 85.714C64.2391 85.714 63.8705 85.882 63.5905 86.218C63.3105 86.554 63.0911 87.0767 62.9325 87.786V92H61.6445V84.622H62.7505L62.8765 86.12C63.0725 85.5693 63.3385 85.154 63.6745 84.874C64.0105 84.594 64.4025 84.454 64.8505 84.454ZM69.393 84.454C70.429 84.454 71.2317 84.7993 71.801 85.49C72.3797 86.1807 72.669 87.1187 72.669 88.304C72.669 89.0693 72.5383 89.746 72.277 90.334C72.0157 90.9127 71.6377 91.3653 71.143 91.692C70.6483 92.0093 70.0603 92.168 69.379 92.168C68.343 92.168 67.5357 91.8227 66.957 91.132C66.3783 90.4413 66.089 89.5033 66.089 88.318C66.089 87.5527 66.2197 86.8807 66.481 86.302C66.7423 85.714 67.1203 85.2613 67.615 84.944C68.1097 84.6173 68.7023 84.454 69.393 84.454ZM69.393 85.49C68.1143 85.49 67.475 86.4327 67.475 88.318C67.475 90.194 68.1097 91.132 69.379 91.132C70.6483 91.132 71.283 90.1893 71.283 88.304C71.283 86.428 70.653 85.49 69.393 85.49ZM76.2668 92.168C75.7908 92.168 75.4128 92.028 75.1328 91.748C74.8621 91.4587 74.7268 91.0573 74.7268 90.544V81.654L76.0148 81.5V90.516C76.0148 90.7213 76.0475 90.8707 76.1128 90.964C76.1875 91.0573 76.3088 91.104 76.4768 91.104C76.6541 91.104 76.8128 91.076 76.9528 91.02L77.2888 91.916C76.9808 92.084 76.6401 92.168 76.2668 92.168ZM80.3684 92.168C79.8924 92.168 79.5144 92.028 79.2344 91.748C78.9637 91.4587 78.8284 91.0573 78.8284 90.544V81.654L80.1164 81.5V90.516C80.1164 90.7213 80.149 90.8707 80.2144 90.964C80.289 91.0573 80.4104 91.104 80.5784 91.104C80.7557 91.104 80.9144 91.076 81.0544 91.02L81.3904 91.916C81.0824 92.084 80.7417 92.168 80.3684 92.168ZM88.105 82.354V90.838H92.067L91.913 92H86.775V82.354H88.105ZM98.8942 88.094C98.8942 88.3087 98.8849 88.528 98.8662 88.752H94.1622C94.2182 89.564 94.4235 90.1613 94.7782 90.544C95.1329 90.9267 95.5902 91.118 96.1502 91.118C96.5049 91.118 96.8315 91.0667 97.1302 90.964C97.4289 90.8613 97.7415 90.698 98.0682 90.474L98.6282 91.244C97.8442 91.86 96.9855 92.168 96.0522 92.168C95.0255 92.168 94.2229 91.832 93.6442 91.16C93.0749 90.488 92.7902 89.564 92.7902 88.388C92.7902 87.6227 92.9115 86.946 93.1542 86.358C93.4062 85.7607 93.7609 85.294 94.2182 84.958C94.6849 84.622 95.2309 84.454 95.8562 84.454C96.8362 84.454 97.5875 84.776 98.1102 85.42C98.6329 86.064 98.8942 86.9553 98.8942 88.094ZM97.6202 87.716C97.6202 86.988 97.4755 86.4327 97.1862 86.05C96.8969 85.6673 96.4629 85.476 95.8842 85.476C94.8295 85.476 94.2555 86.2507 94.1622 87.8H97.6202V87.716ZM103.457 82.536C103.065 82.536 102.785 82.6247 102.617 82.802C102.449 82.97 102.365 83.236 102.365 83.6V84.622H104.157L104.017 85.616H102.365V92H101.077V85.616H99.7611V84.622H101.077V83.614C101.077 82.9793 101.278 82.4707 101.679 82.088C102.09 81.696 102.659 81.5 103.387 81.5C103.723 81.5 104.022 81.5327 104.283 81.598C104.554 81.654 104.843 81.7473 105.151 81.878L104.745 82.816C104.325 82.6293 103.896 82.536 103.457 82.536ZM109.365 91.664C108.879 92 108.329 92.168 107.713 92.168C107.087 92.168 106.597 91.9907 106.243 91.636C105.897 91.272 105.725 90.7493 105.725 90.068V85.616H104.437V84.622H105.725V82.956L107.013 82.802V84.622H108.763L108.623 85.616H107.013V90.012C107.013 90.3947 107.078 90.6747 107.209 90.852C107.349 91.02 107.577 91.104 107.895 91.104C108.184 91.104 108.511 91.006 108.875 90.81L109.365 91.664Z" fill="#272727"/>
<rect x="170.5" y="227.5" width="17" height="17" rx="5.5" fill="#63B1BC" stroke="#272727"/>
<path d="M170 236L150.887 236L60.8668 236L0 236" stroke="#272727"/>
<path d="M5.656 226.904C6.31867 227.016 6.85533 227.249 7.266 227.604C7.67667 227.959 7.882 228.509 7.882 229.256C7.882 231.085 6.608 232 4.06 232H1.4V222.354H3.682C4.90467 222.354 5.838 222.555 6.482 222.956C7.13533 223.357 7.462 223.969 7.462 224.79C7.462 225.35 7.28467 225.817 6.93 226.19C6.58467 226.563 6.16 226.801 5.656 226.904ZM2.73 223.404V226.442H4.186C4.746 226.442 5.20333 226.307 5.558 226.036C5.922 225.765 6.104 225.383 6.104 224.888C6.104 224.328 5.91267 223.941 5.53 223.726C5.15667 223.511 4.58733 223.404 3.822 223.404H2.73ZM4.06 230.936C4.844 230.936 5.44133 230.819 5.852 230.586C6.272 230.353 6.482 229.909 6.482 229.256C6.482 228.621 6.28133 228.164 5.88 227.884C5.47867 227.604 4.956 227.464 4.312 227.464H2.73V230.936H4.06ZM14.8176 230.278C14.8176 230.577 14.8689 230.801 14.9716 230.95C15.0742 231.09 15.2282 231.197 15.4336 231.272L15.1396 232.168C14.7569 232.121 14.4489 232.014 14.2156 231.846C13.9822 231.678 13.8096 231.417 13.6976 231.062C13.2029 231.799 12.4702 232.168 11.4996 232.168C10.7716 232.168 10.1976 231.963 9.77758 231.552C9.35758 231.141 9.14758 230.605 9.14758 229.942C9.14758 229.158 9.42758 228.556 9.98758 228.136C10.5569 227.716 11.3596 227.506 12.3956 227.506H13.5296V226.96C13.5296 226.437 13.4036 226.064 13.1516 225.84C12.8996 225.616 12.5122 225.504 11.9896 225.504C11.4482 225.504 10.7856 225.635 10.0016 225.896L9.67958 224.958C10.5942 224.622 11.4436 224.454 12.2276 224.454C13.0956 224.454 13.7442 224.669 14.1736 225.098C14.6029 225.518 14.8176 226.12 14.8176 226.904V230.278ZM11.7936 231.202C12.5309 231.202 13.1096 230.819 13.5296 230.054V228.36H12.5636C11.2009 228.36 10.5196 228.864 10.5196 229.872C10.5196 230.311 10.6269 230.642 10.8416 230.866C11.0562 231.09 11.3736 231.202 11.7936 231.202ZM20.1508 224.454C20.5895 224.454 20.9908 224.519 21.3548 224.65C21.7188 224.771 22.0688 224.972 22.4048 225.252L21.7888 226.064C21.5275 225.877 21.2708 225.742 21.0188 225.658C20.7761 225.565 20.5055 225.518 20.2068 225.518C19.6095 225.518 19.1428 225.756 18.8068 226.232C18.4801 226.708 18.3168 227.413 18.3168 228.346C18.3168 229.279 18.4801 229.97 18.8068 230.418C19.1335 230.857 19.6001 231.076 20.2068 231.076C20.4961 231.076 20.7621 231.034 21.0048 230.95C21.2475 230.857 21.5181 230.712 21.8168 230.516L22.4048 231.356C21.7328 231.897 20.9815 232.168 20.1508 232.168C19.1521 232.168 18.3635 231.832 17.7848 231.16C17.2155 230.488 16.9308 229.559 16.9308 228.374C16.9308 227.59 17.0615 226.904 17.3228 226.316C17.5841 225.728 17.9528 225.271 18.4288 224.944C18.9141 224.617 19.4881 224.454 20.1508 224.454ZM25.4364 221.5V232H24.1484V221.654L25.4364 221.5ZM29.6784 224.622L26.9624 227.884L29.9864 232H28.4464L25.5204 227.968L28.2364 224.622H29.6784Z" fill="#272727"/>
<path d="M1.4 174V164.354H6.524L6.37 165.418H2.73V168.708H5.88V169.758H2.73V174H1.4ZM10.4868 166.454C11.5228 166.454 12.3254 166.799 12.8948 167.49C13.4734 168.181 13.7628 169.119 13.7628 170.304C13.7628 171.069 13.6321 171.746 13.3708 172.334C13.1094 172.913 12.7314 173.365 12.2368 173.692C11.7421 174.009 11.1541 174.168 10.4728 174.168C9.43677 174.168 8.62943 173.823 8.05077 173.132C7.4721 172.441 7.18277 171.503 7.18277 170.318C7.18277 169.553 7.31343 168.881 7.57477 168.302C7.8361 167.714 8.2141 167.261 8.70877 166.944C9.20343 166.617 9.7961 166.454 10.4868 166.454ZM10.4868 167.49C9.2081 167.49 8.56877 168.433 8.56877 170.318C8.56877 172.194 9.20343 173.132 10.4728 173.132C11.7421 173.132 12.3768 172.189 12.3768 170.304C12.3768 168.428 11.7468 167.49 10.4868 167.49ZM19.0965 166.454C19.3579 166.454 19.6005 166.482 19.8245 166.538L19.5865 167.798C19.3625 167.742 19.1479 167.714 18.9425 167.714C18.4852 167.714 18.1165 167.882 17.8365 168.218C17.5565 168.554 17.3372 169.077 17.1785 169.786V174H15.8905V166.622H16.9965L17.1225 168.12C17.3185 167.569 17.5845 167.154 17.9205 166.874C18.2565 166.594 18.6485 166.454 19.0965 166.454ZM29.7189 166.622L28.0389 174H26.2889L25.0009 167.784L23.6709 174H21.9629L20.2409 166.622H21.5289L22.8589 173.104L24.3149 166.622H25.7569L27.1429 173.104L28.4869 166.622H29.7189ZM36.132 172.278C36.132 172.577 36.1834 172.801 36.286 172.95C36.3887 173.09 36.5427 173.197 36.748 173.272L36.454 174.168C36.0714 174.121 35.7634 174.014 35.53 173.846C35.2967 173.678 35.124 173.417 35.012 173.062C34.5174 173.799 33.7847 174.168 32.814 174.168C32.086 174.168 31.512 173.963 31.092 173.552C30.672 173.141 30.462 172.605 30.462 171.942C30.462 171.158 30.742 170.556 31.302 170.136C31.8714 169.716 32.674 169.506 33.71 169.506H34.844V168.96C34.844 168.437 34.718 168.064 34.466 167.84C34.214 167.616 33.8267 167.504 33.304 167.504C32.7627 167.504 32.1 167.635 31.316 167.896L30.994 166.958C31.9087 166.622 32.758 166.454 33.542 166.454C34.41 166.454 35.0587 166.669 35.488 167.098C35.9174 167.518 36.132 168.12 36.132 168.904V172.278ZM33.108 173.202C33.8454 173.202 34.424 172.819 34.844 172.054V170.36H33.878C32.5154 170.36 31.834 170.864 31.834 171.872C31.834 172.311 31.9414 172.642 32.156 172.866C32.3707 173.09 32.688 173.202 33.108 173.202ZM41.9833 166.454C42.2446 166.454 42.4873 166.482 42.7113 166.538L42.4733 167.798C42.2493 167.742 42.0346 167.714 41.8293 167.714C41.3719 167.714 41.0033 167.882 40.7233 168.218C40.4433 168.554 40.2239 169.077 40.0653 169.786V174H38.7773V166.622H39.8833L40.0093 168.12C40.2053 167.569 40.4713 167.154 40.8073 166.874C41.1433 166.594 41.5353 166.454 41.9833 166.454ZM49.4658 163.654V174H48.3318L48.2058 172.978C47.9632 173.351 47.6598 173.645 47.2958 173.86C46.9318 174.065 46.5258 174.168 46.0778 174.168C45.2005 174.168 44.5145 173.823 44.0198 173.132C43.5345 172.441 43.2918 171.513 43.2918 170.346C43.2918 169.59 43.4085 168.918 43.6418 168.33C43.8752 167.742 44.2112 167.285 44.6498 166.958C45.0885 166.622 45.6018 166.454 46.1898 166.454C46.9458 166.454 47.6085 166.757 48.1778 167.364V163.5L49.4658 163.654ZM46.3578 173.146C46.7498 173.146 47.0858 173.057 47.3658 172.88C47.6458 172.693 47.9165 172.418 48.1778 172.054V168.442C47.9352 168.125 47.6738 167.887 47.3938 167.728C47.1232 167.56 46.8152 167.476 46.4698 167.476C45.9005 167.476 45.4572 167.714 45.1398 168.19C44.8318 168.666 44.6778 169.375 44.6778 170.318C44.6778 171.27 44.8225 171.979 45.1118 172.446C45.4012 172.913 45.8165 173.146 46.3578 173.146Z" fill="#272727"/>
<path d="M170 178L150.887 178L60.8668 178L0 178" stroke="#272727"/>
<rect x="170.5" y="169.5" width="17" height="17" rx="5.5" fill="#63B1BC" stroke="#272727"/>
<path d="M3.78 193.186C4.424 193.186 4.97467 193.279 5.432 193.466C5.88933 193.643 6.33267 193.923 6.762 194.306L6.034 195.118C5.67 194.829 5.31067 194.619 4.956 194.488C4.61067 194.348 4.23733 194.278 3.836 194.278C3.332 194.278 2.91667 194.395 2.59 194.628C2.26333 194.861 2.1 195.202 2.1 195.65C2.1 195.93 2.156 196.168 2.268 196.364C2.38 196.551 2.58533 196.723 2.884 196.882C3.192 197.041 3.63533 197.209 4.214 197.386C4.82067 197.573 5.32467 197.773 5.726 197.988C6.12733 198.203 6.44933 198.501 6.692 198.884C6.944 199.257 7.07 199.733 7.07 200.312C7.07 200.872 6.93 201.367 6.65 201.796C6.37933 202.225 5.98267 202.561 5.46 202.804C4.94667 203.047 4.33533 203.168 3.626 203.168C2.29133 203.168 1.19933 202.753 0.35 201.922L1.078 201.11C1.47 201.427 1.86667 201.67 2.268 201.838C2.66933 201.997 3.11733 202.076 3.612 202.076C4.20933 202.076 4.704 201.931 5.096 201.642C5.488 201.343 5.684 200.914 5.684 200.354C5.684 200.037 5.62333 199.775 5.502 199.57C5.38067 199.355 5.17067 199.164 4.872 198.996C4.58267 198.828 4.158 198.66 3.598 198.492C2.60867 198.193 1.88533 197.834 1.428 197.414C0.970667 196.994 0.742 196.425 0.742 195.706C0.742 195.221 0.868 194.787 1.12 194.404C1.38133 194.021 1.74067 193.723 2.198 193.508C2.66467 193.293 3.192 193.186 3.78 193.186ZM14.4469 203H13.3409L13.2429 201.852C12.9629 202.309 12.6409 202.645 12.2769 202.86C11.9129 203.065 11.4696 203.168 10.9469 203.168C10.3029 203.168 9.79891 202.972 9.43491 202.58C9.07091 202.188 8.88891 201.633 8.88891 200.914V195.622H10.1769V200.774C10.1769 201.278 10.2656 201.637 10.4429 201.852C10.6202 202.057 10.9096 202.16 11.3109 202.16C12.0296 202.16 12.6456 201.735 13.1589 200.886V195.622H14.4469V203ZM20.4953 195.454C21.438 195.454 22.1287 195.79 22.5673 196.462C23.006 197.134 23.2253 198.081 23.2253 199.304C23.2253 200.461 22.9733 201.395 22.4693 202.104C21.9653 202.813 21.2513 203.168 20.3273 203.168C19.506 203.168 18.862 202.888 18.3953 202.328V205.828L17.1073 205.982V195.622H18.2133L18.3113 196.616C18.582 196.243 18.9087 195.958 19.2913 195.762C19.674 195.557 20.0753 195.454 20.4953 195.454ZM20.0193 202.118C21.2327 202.118 21.8393 201.18 21.8393 199.304C21.8393 197.419 21.284 196.476 20.1733 196.476C19.8093 196.476 19.478 196.583 19.1793 196.798C18.8807 197.013 18.6193 197.288 18.3953 197.624V201.222C18.582 201.511 18.8153 201.735 19.0953 201.894C19.3753 202.043 19.6833 202.118 20.0193 202.118ZM30.9918 199.094C30.9918 199.309 30.9825 199.528 30.9638 199.752H26.2598C26.3158 200.564 26.5212 201.161 26.8758 201.544C27.2305 201.927 27.6878 202.118 28.2478 202.118C28.6025 202.118 28.9292 202.067 29.2278 201.964C29.5265 201.861 29.8392 201.698 30.1658 201.474L30.7258 202.244C29.9418 202.86 29.0832 203.168 28.1498 203.168C27.1232 203.168 26.3205 202.832 25.7418 202.16C25.1725 201.488 24.8878 200.564 24.8878 199.388C24.8878 198.623 25.0092 197.946 25.2518 197.358C25.5038 196.761 25.8585 196.294 26.3158 195.958C26.7825 195.622 27.3285 195.454 27.9538 195.454C28.9338 195.454 29.6852 195.776 30.2078 196.42C30.7305 197.064 30.9918 197.955 30.9918 199.094ZM29.7178 198.716C29.7178 197.988 29.5732 197.433 29.2838 197.05C28.9945 196.667 28.5605 196.476 27.9818 196.476C26.9272 196.476 26.3532 197.251 26.2598 198.8H29.7178V198.716ZM36.2548 195.454C36.5161 195.454 36.7588 195.482 36.9828 195.538L36.7448 196.798C36.5208 196.742 36.3061 196.714 36.1008 196.714C35.6434 196.714 35.2748 196.882 34.9948 197.218C34.7148 197.554 34.4954 198.077 34.3368 198.786V203H33.0488V195.622H34.1548L34.2808 197.12C34.4768 196.569 34.7428 196.154 35.0788 195.874C35.4148 195.594 35.8068 195.454 36.2548 195.454Z" fill="#272727"/>
<rect x="170.5" y="198.5" width="17" height="17" rx="5.5" fill="#63B1BC" stroke="#272727"/>
<path d="M170 207L150.887 207L60.8668 207L0 207" stroke="#272727"/>
<rect x="-0.5" y="0.5" width="17" height="17" rx="5.5" transform="matrix(-1 0 0 1 303 55)" fill="#63B1BC" stroke="#272727"/>
<path d="M473 64L453.887 64L363.867 64L303 64" stroke="#272727"/>
<path d="M410.96 55.912H409.462V60H408.132V50.354H410.666C411.87 50.354 412.78 50.5827 413.396 51.04C414.022 51.4973 414.334 52.1787 414.334 53.084C414.334 53.756 414.162 54.302 413.816 54.722C413.471 55.142 412.948 55.4593 412.248 55.674L414.852 60H413.27L410.96 55.912ZM410.806 54.89C411.506 54.89 412.034 54.75 412.388 54.47C412.743 54.1807 412.92 53.7187 412.92 53.084C412.92 52.4867 412.738 52.0573 412.374 51.796C412.02 51.5253 411.446 51.39 410.652 51.39H409.462V54.89H410.806ZM417.827 52.622V60H416.539V52.622H417.827ZM417.169 49.08C417.44 49.08 417.659 49.164 417.827 49.332C417.995 49.5 418.079 49.71 418.079 49.962C418.079 50.214 417.995 50.424 417.827 50.592C417.659 50.7507 417.44 50.83 417.169 50.83C416.908 50.83 416.693 50.7507 416.525 50.592C416.357 50.424 416.273 50.214 416.273 49.962C416.273 49.71 416.357 49.5 416.525 49.332C416.693 49.164 416.908 49.08 417.169 49.08ZM426.44 52.958C426.16 53.0513 425.852 53.112 425.516 53.14C425.18 53.168 424.769 53.182 424.284 53.182C425.152 53.574 425.586 54.1947 425.586 55.044C425.586 55.7813 425.334 56.3833 424.83 56.85C424.326 57.3167 423.64 57.55 422.772 57.55C422.436 57.55 422.123 57.5033 421.834 57.41C421.722 57.4847 421.633 57.5873 421.568 57.718C421.503 57.8393 421.47 57.9653 421.47 58.096C421.47 58.4973 421.792 58.698 422.436 58.698H423.612C424.107 58.698 424.545 58.7867 424.928 58.964C425.311 59.1413 425.605 59.384 425.81 59.692C426.025 60 426.132 60.35 426.132 60.742C426.132 61.4607 425.838 62.0113 425.25 62.394C424.662 62.786 423.803 62.982 422.674 62.982C421.881 62.982 421.251 62.898 420.784 62.73C420.327 62.5713 420 62.3287 419.804 62.002C419.608 61.6753 419.51 61.2553 419.51 60.742H420.672C420.672 61.0407 420.728 61.274 420.84 61.442C420.952 61.6193 421.153 61.75 421.442 61.834C421.731 61.9273 422.142 61.974 422.674 61.974C423.449 61.974 423.999 61.876 424.326 61.68C424.662 61.4933 424.83 61.2087 424.83 60.826C424.83 60.4807 424.699 60.2193 424.438 60.042C424.177 59.8647 423.813 59.776 423.346 59.776H422.184C421.559 59.776 421.083 59.6453 420.756 59.384C420.439 59.1133 420.28 58.7773 420.28 58.376C420.28 58.1333 420.35 57.9 420.49 57.676C420.63 57.452 420.831 57.2513 421.092 57.074C420.663 56.85 420.345 56.5747 420.14 56.248C419.944 55.912 419.846 55.506 419.846 55.03C419.846 54.5353 419.967 54.092 420.21 53.7C420.462 53.308 420.803 53.0047 421.232 52.79C421.671 52.566 422.156 52.454 422.688 52.454C423.267 52.4633 423.752 52.4447 424.144 52.398C424.536 52.342 424.858 52.272 425.11 52.188C425.371 52.0947 425.689 51.964 426.062 51.796L426.44 52.958ZM422.688 53.378C422.203 53.378 421.825 53.532 421.554 53.84C421.293 54.1387 421.162 54.5353 421.162 55.03C421.162 55.534 421.297 55.94 421.568 56.248C421.839 56.5467 422.221 56.696 422.716 56.696C423.22 56.696 423.603 56.5513 423.864 56.262C424.135 55.9633 424.27 55.548 424.27 55.016C424.27 53.924 423.743 53.378 422.688 53.378ZM431.236 52.454C431.908 52.454 432.43 52.6547 432.804 53.056C433.186 53.4573 433.378 54.008 433.378 54.708V60H432.09V54.89C432.09 54.3673 431.987 53.9987 431.782 53.784C431.586 53.5693 431.296 53.462 430.914 53.462C430.531 53.462 430.19 53.574 429.892 53.798C429.593 54.022 429.313 54.3393 429.052 54.75V60H427.764V49.668L429.052 49.528V53.644C429.63 52.8507 430.358 52.454 431.236 52.454ZM439.691 59.664C439.205 60 438.655 60.168 438.039 60.168C437.413 60.168 436.923 59.9907 436.569 59.636C436.223 59.272 436.051 58.7493 436.051 58.068V53.616H434.763V52.622H436.051V50.956L437.339 50.802V52.622H439.089L438.949 53.616H437.339V58.012C437.339 58.3947 437.404 58.6747 437.535 58.852C437.675 59.02 437.903 59.104 438.221 59.104C438.51 59.104 438.837 59.006 439.201 58.81L439.691 59.664ZM448.174 50.186C448.753 50.186 449.238 50.2607 449.63 50.41C450.032 50.5593 450.438 50.802 450.848 51.138L450.12 51.992C449.532 51.516 448.912 51.278 448.258 51.278C447.456 51.278 446.807 51.586 446.312 52.202C445.827 52.818 445.584 53.8073 445.584 55.17C445.584 56.4953 445.827 57.4753 446.312 58.11C446.798 58.7353 447.442 59.048 448.244 59.048C448.655 59.048 449.014 58.978 449.322 58.838C449.63 58.698 449.957 58.502 450.302 58.25L450.96 59.09C450.662 59.398 450.279 59.6547 449.812 59.86C449.346 60.0653 448.809 60.168 448.202 60.168C447.418 60.168 446.718 59.9767 446.102 59.594C445.496 59.202 445.02 58.6327 444.674 57.886C444.338 57.13 444.17 56.2247 444.17 55.17C444.17 54.1153 444.348 53.2147 444.702 52.468C445.057 51.712 445.538 51.1427 446.144 50.76C446.751 50.3773 447.428 50.186 448.174 50.186ZM453.898 60.168C453.422 60.168 453.044 60.028 452.764 59.748C452.493 59.4587 452.358 59.0573 452.358 58.544V49.654L453.646 49.5V58.516C453.646 58.7213 453.678 58.8707 453.744 58.964C453.818 59.0573 453.94 59.104 454.108 59.104C454.285 59.104 454.444 59.076 454.584 59.02L454.92 59.916C454.612 60.084 454.271 60.168 453.898 60.168ZM457.817 52.622V60H456.529V52.622H457.817ZM457.159 49.08C457.43 49.08 457.649 49.164 457.817 49.332C457.985 49.5 458.069 49.71 458.069 49.962C458.069 50.214 457.985 50.424 457.817 50.592C457.649 50.7507 457.43 50.83 457.159 50.83C456.898 50.83 456.683 50.7507 456.515 50.592C456.347 50.424 456.263 50.214 456.263 49.962C456.263 49.71 456.347 49.5 456.515 49.332C456.683 49.164 456.898 49.08 457.159 49.08ZM463.168 52.454C463.607 52.454 464.008 52.5193 464.372 52.65C464.736 52.7713 465.086 52.972 465.422 53.252L464.806 54.064C464.545 53.8773 464.288 53.742 464.036 53.658C463.794 53.5647 463.523 53.518 463.224 53.518C462.627 53.518 462.16 53.756 461.824 54.232C461.498 54.708 461.334 55.4127 461.334 56.346C461.334 57.2793 461.498 57.97 461.824 58.418C462.151 58.8567 462.618 59.076 463.224 59.076C463.514 59.076 463.78 59.034 464.022 58.95C464.265 58.8567 464.536 58.712 464.834 58.516L465.422 59.356C464.75 59.8973 463.999 60.168 463.168 60.168C462.17 60.168 461.381 59.832 460.802 59.16C460.233 58.488 459.948 57.5593 459.948 56.374C459.948 55.59 460.079 54.904 460.34 54.316C460.602 53.728 460.97 53.2707 461.446 52.944C461.932 52.6173 462.506 52.454 463.168 52.454ZM468.454 49.5V60H467.166V49.654L468.454 49.5ZM472.696 52.622L469.98 55.884L473.004 60H471.464L468.538 55.968L471.254 52.622H472.696Z" fill="#272727"/>
<rect x="210.5" y="55.5" width="17" height="17" rx="5.5" fill="#63B1BC" stroke="#272727"/>
<path d="M210 64L190.887 64L100.867 64L40 64" stroke="#272727"/>
<path d="M42.73 50.354V58.838H46.692L46.538 60H41.4V50.354H42.73ZM53.5192 56.094C53.5192 56.3087 53.5099 56.528 53.4912 56.752H48.7872C48.8432 57.564 49.0485 58.1613 49.4032 58.544C49.7579 58.9267 50.2152 59.118 50.7752 59.118C51.1299 59.118 51.4565 59.0667 51.7552 58.964C52.0539 58.8613 52.3665 58.698 52.6932 58.474L53.2532 59.244C52.4692 59.86 51.6105 60.168 50.6772 60.168C49.6505 60.168 48.8479 59.832 48.2692 59.16C47.6999 58.488 47.4152 57.564 47.4152 56.388C47.4152 55.6227 47.5365 54.946 47.7792 54.358C48.0312 53.7607 48.3859 53.294 48.8432 52.958C49.3099 52.622 49.8559 52.454 50.4812 52.454C51.4612 52.454 52.2125 52.776 52.7352 53.42C53.2579 54.064 53.5192 54.9553 53.5192 56.094ZM52.2452 55.716C52.2452 54.988 52.1005 54.4327 51.8112 54.05C51.5219 53.6673 51.0879 53.476 50.5092 53.476C49.4545 53.476 48.8805 54.2507 48.7872 55.8H52.2452V55.716ZM58.0821 50.536C57.6901 50.536 57.4101 50.6247 57.2421 50.802C57.0741 50.97 56.9901 51.236 56.9901 51.6V52.622H58.7821L58.6421 53.616H56.9901V60H55.7021V53.616H54.3861V52.622H55.7021V51.614C55.7021 50.9793 55.9028 50.4707 56.3041 50.088C56.7148 49.696 57.2841 49.5 58.0121 49.5C58.3481 49.5 58.6468 49.5327 58.9081 49.598C59.1788 49.654 59.4681 49.7473 59.7761 49.878L59.3701 50.816C58.9501 50.6293 58.5208 50.536 58.0821 50.536ZM63.9895 59.664C63.5042 60 62.9535 60.168 62.3375 60.168C61.7122 60.168 61.2222 59.9907 60.8675 59.636C60.5222 59.272 60.3495 58.7493 60.3495 58.068V53.616H59.0615V52.622H60.3495V50.956L61.6375 50.802V52.622H63.3875L63.2475 53.616H61.6375V58.012C61.6375 58.3947 61.7029 58.6747 61.8335 58.852C61.9735 59.02 62.2022 59.104 62.5195 59.104C62.8089 59.104 63.1355 59.006 63.4995 58.81L63.9895 59.664ZM72.4732 50.186C73.0519 50.186 73.5372 50.2607 73.9292 50.41C74.3306 50.5593 74.7366 50.802 75.1472 51.138L74.4192 51.992C73.8312 51.516 73.2106 51.278 72.5572 51.278C71.7546 51.278 71.1059 51.586 70.6112 52.202C70.1259 52.818 69.8832 53.8073 69.8832 55.17C69.8832 56.4953 70.1259 57.4753 70.6112 58.11C71.0966 58.7353 71.7406 59.048 72.5432 59.048C72.9539 59.048 73.3132 58.978 73.6212 58.838C73.9292 58.698 74.2559 58.502 74.6012 58.25L75.2592 59.09C74.9606 59.398 74.5779 59.6547 74.1112 59.86C73.6446 60.0653 73.1079 60.168 72.5012 60.168C71.7172 60.168 71.0172 59.9767 70.4012 59.594C69.7946 59.202 69.3186 58.6327 68.9732 57.886C68.6372 57.13 68.4692 56.2247 68.4692 55.17C68.4692 54.1153 68.6466 53.2147 69.0012 52.468C69.3559 51.712 69.8366 51.1427 70.4432 50.76C71.0499 50.3773 71.7266 50.186 72.4732 50.186ZM78.1965 60.168C77.7205 60.168 77.3425 60.028 77.0625 59.748C76.7918 59.4587 76.6565 59.0573 76.6565 58.544V49.654L77.9445 49.5V58.516C77.9445 58.7213 77.9772 58.8707 78.0425 58.964C78.1172 59.0573 78.2385 59.104 78.4065 59.104C78.5838 59.104 78.7425 59.076 78.8825 59.02L79.2185 59.916C78.9105 60.084 78.5698 60.168 78.1965 60.168ZM82.116 52.622V60H80.828V52.622H82.116ZM81.458 49.08C81.7287 49.08 81.948 49.164 82.116 49.332C82.284 49.5 82.368 49.71 82.368 49.962C82.368 50.214 82.284 50.424 82.116 50.592C81.948 50.7507 81.7287 50.83 81.458 50.83C81.1967 50.83 80.982 50.7507 80.814 50.592C80.646 50.424 80.562 50.214 80.562 49.962C80.562 49.71 80.646 49.5 80.814 49.332C80.982 49.164 81.1967 49.08 81.458 49.08ZM87.4672 52.454C87.9059 52.454 88.3072 52.5193 88.6712 52.65C89.0352 52.7713 89.3852 52.972 89.7212 53.252L89.1052 54.064C88.8439 53.8773 88.5872 53.742 88.3352 53.658C88.0926 53.5647 87.8219 53.518 87.5232 53.518C86.9259 53.518 86.4592 53.756 86.1232 54.232C85.7966 54.708 85.6332 55.4127 85.6332 56.346C85.6332 57.2793 85.7966 57.97 86.1232 58.418C86.4499 58.8567 86.9166 59.076 87.5232 59.076C87.8126 59.076 88.0786 59.034 88.3212 58.95C88.5639 58.8567 88.8346 58.712 89.1332 58.516L89.7212 59.356C89.0492 59.8973 88.2979 60.168 87.4672 60.168C86.4686 60.168 85.6799 59.832 85.1012 59.16C84.5319 58.488 84.2472 57.5593 84.2472 56.374C84.2472 55.59 84.3779 54.904 84.6392 54.316C84.9006 53.728 85.2692 53.2707 85.7452 52.944C86.2306 52.6173 86.8046 52.454 87.4672 52.454ZM92.7528 49.5V60H91.4648V49.654L92.7528 49.5ZM96.9948 52.622L94.2788 55.884L97.3028 60H95.7628L92.8368 55.968L95.5528 52.622H96.9948Z" fill="#272727"/>
<path d="M360.475 13H359.187L358.851 8.646C358.711 6.938 358.632 5.62667 358.613 4.712L356.527 11.908H355.281L353.083 4.698C353.083 5.86467 353.023 7.21333 352.901 8.744L352.579 13H351.319L352.117 3.354H353.909L355.939 10.368L357.871 3.354H359.677L360.475 13ZM363.966 5.622V13H362.678V5.622H363.966ZM363.308 2.08C363.578 2.08 363.798 2.164 363.966 2.332C364.134 2.5 364.218 2.71 364.218 2.962C364.218 3.214 364.134 3.424 363.966 3.592C363.798 3.75067 363.578 3.83 363.308 3.83C363.046 3.83 362.832 3.75067 362.664 3.592C362.496 3.424 362.412 3.214 362.412 2.962C362.412 2.71 362.496 2.5 362.664 2.332C362.832 2.164 363.046 2.08 363.308 2.08ZM372.341 2.654V13H371.207L371.081 11.978C370.838 12.3513 370.535 12.6453 370.171 12.86C369.807 13.0653 369.401 13.168 368.953 13.168C368.075 13.168 367.389 12.8227 366.895 12.132C366.409 11.4413 366.167 10.5127 366.167 9.346C366.167 8.59 366.283 7.918 366.517 7.33C366.75 6.742 367.086 6.28467 367.525 5.958C367.963 5.622 368.477 5.454 369.065 5.454C369.821 5.454 370.483 5.75733 371.053 6.364V2.5L372.341 2.654ZM369.233 12.146C369.625 12.146 369.961 12.0573 370.241 11.88C370.521 11.6933 370.791 11.418 371.053 11.054V7.442C370.81 7.12467 370.549 6.88667 370.269 6.728C369.998 6.56 369.69 6.476 369.345 6.476C368.775 6.476 368.332 6.714 368.015 7.19C367.707 7.666 367.553 8.37533 367.553 9.318C367.553 10.27 367.697 10.9793 367.987 11.446C368.276 11.9127 368.691 12.146 369.233 12.146ZM380.708 2.654V13H379.574L379.448 11.978C379.205 12.3513 378.902 12.6453 378.538 12.86C378.174 13.0653 377.768 13.168 377.32 13.168C376.443 13.168 375.757 12.8227 375.262 12.132C374.777 11.4413 374.534 10.5127 374.534 9.346C374.534 8.59 374.651 7.918 374.884 7.33C375.117 6.742 375.453 6.28467 375.892 5.958C376.331 5.622 376.844 5.454 377.432 5.454C378.188 5.454 378.851 5.75733 379.42 6.364V2.5L380.708 2.654ZM377.6 12.146C377.992 12.146 378.328 12.0573 378.608 11.88C378.888 11.6933 379.159 11.418 379.42 11.054V7.442C379.177 7.12467 378.916 6.88667 378.636 6.728C378.365 6.56 378.057 6.476 377.712 6.476C377.143 6.476 376.699 6.714 376.382 7.19C376.074 7.666 375.92 8.37533 375.92 9.318C375.92 10.27 376.065 10.9793 376.354 11.446C376.643 11.9127 377.059 12.146 377.6 12.146ZM384.833 13.168C384.357 13.168 383.979 13.028 383.699 12.748C383.429 12.4587 383.293 12.0573 383.293 11.544V2.654L384.581 2.5V11.516C384.581 11.7213 384.614 11.8707 384.679 11.964C384.754 12.0573 384.875 12.104 385.043 12.104C385.221 12.104 385.379 12.076 385.519 12.02L385.855 12.916C385.547 13.084 385.207 13.168 384.833 13.168ZM392.968 9.094C392.968 9.30867 392.959 9.528 392.94 9.752H388.236C388.292 10.564 388.498 11.1613 388.852 11.544C389.207 11.9267 389.664 12.118 390.224 12.118C390.579 12.118 390.906 12.0667 391.204 11.964C391.503 11.8613 391.816 11.698 392.142 11.474L392.702 12.244C391.918 12.86 391.06 13.168 390.126 13.168C389.1 13.168 388.297 12.832 387.718 12.16C387.149 11.488 386.864 10.564 386.864 9.388C386.864 8.62267 386.986 7.946 387.228 7.358C387.48 6.76067 387.835 6.294 388.292 5.958C388.759 5.622 389.305 5.454 389.93 5.454C390.91 5.454 391.662 5.776 392.184 6.42C392.707 7.064 392.968 7.95533 392.968 9.094ZM391.694 8.716C391.694 7.988 391.55 7.43267 391.26 7.05C390.971 6.66733 390.537 6.476 389.958 6.476C388.904 6.476 388.33 7.25067 388.236 8.8H391.694V8.716ZM402.174 3.186C402.753 3.186 403.238 3.26067 403.63 3.41C404.032 3.55933 404.438 3.802 404.848 4.138L404.12 4.992C403.532 4.516 402.912 4.278 402.258 4.278C401.456 4.278 400.807 4.586 400.312 5.202C399.827 5.818 399.584 6.80733 399.584 8.17C399.584 9.49533 399.827 10.4753 400.312 11.11C400.798 11.7353 401.442 12.048 402.244 12.048C402.655 12.048 403.014 11.978 403.322 11.838C403.63 11.698 403.957 11.502 404.302 11.25L404.96 12.09C404.662 12.398 404.279 12.6547 403.812 12.86C403.346 13.0653 402.809 13.168 402.202 13.168C401.418 13.168 400.718 12.9767 400.102 12.594C399.496 12.202 399.02 11.6327 398.674 10.886C398.338 10.13 398.17 9.22467 398.17 8.17C398.17 7.11533 398.348 6.21467 398.702 5.468C399.057 4.712 399.538 4.14267 400.144 3.76C400.751 3.37733 401.428 3.186 402.174 3.186ZM407.898 13.168C407.422 13.168 407.044 13.028 406.764 12.748C406.493 12.4587 406.358 12.0573 406.358 11.544V2.654L407.646 2.5V11.516C407.646 11.7213 407.678 11.8707 407.744 11.964C407.818 12.0573 407.94 12.104 408.108 12.104C408.285 12.104 408.444 12.076 408.584 12.02L408.92 12.916C408.612 13.084 408.271 13.168 407.898 13.168ZM411.817 5.622V13H410.529V5.622H411.817ZM411.159 2.08C411.43 2.08 411.649 2.164 411.817 2.332C411.985 2.5 412.069 2.71 412.069 2.962C412.069 3.214 411.985 3.424 411.817 3.592C411.649 3.75067 411.43 3.83 411.159 3.83C410.898 3.83 410.683 3.75067 410.515 3.592C410.347 3.424 410.263 3.214 410.263 2.962C410.263 2.71 410.347 2.5 410.515 2.332C410.683 2.164 410.898 2.08 411.159 2.08ZM417.168 5.454C417.607 5.454 418.008 5.51933 418.372 5.65C418.736 5.77133 419.086 5.972 419.422 6.252L418.806 7.064C418.545 6.87733 418.288 6.742 418.036 6.658C417.794 6.56467 417.523 6.518 417.224 6.518C416.627 6.518 416.16 6.756 415.824 7.232C415.498 7.708 415.334 8.41267 415.334 9.346C415.334 10.2793 415.498 10.97 415.824 11.418C416.151 11.8567 416.618 12.076 417.224 12.076C417.514 12.076 417.78 12.034 418.022 11.95C418.265 11.8567 418.536 11.712 418.834 11.516L419.422 12.356C418.75 12.8973 417.999 13.168 417.168 13.168C416.17 13.168 415.381 12.832 414.802 12.16C414.233 11.488 413.948 10.5593 413.948 9.374C413.948 8.59 414.079 7.904 414.34 7.316C414.602 6.728 414.97 6.27067 415.446 5.944C415.932 5.61733 416.506 5.454 417.168 5.454ZM422.454 2.5V13H421.166V2.654L422.454 2.5ZM426.696 5.622L423.98 8.884L427.004 13H425.464L422.538 8.968L425.254 5.622H426.696Z" fill="#272727"/>
<path d="M257 88.9842L257 76.4844L257 17L427 17.0003" stroke="#272727"/>
<rect x="-0.5" y="0.5" width="17" height="17" rx="5.5" transform="matrix(-1 0 0 1 265 82)" fill="#63B1BC" stroke="#272727"/>
</svg>
