<svg width="474" height="347" viewBox="0 0 474 347" fill="none" xmlns="http://www.w3.org/2000/svg">
<path d="M268 40H246V185H268V40Z" fill="#666666"/>
<path d="M246 79V73H257H268V79M246 79V85H257H268M246 79H257H268M268 79V85M268 85V91M268 91V97M268 91H257H246V97M246 97V103M246 97H257H268M268 97V103M268 103V109M268 103H257H246M246 103V109M246 109V115H257H268V109M246 109H257H268" stroke="#CCCCCC"/>
<path d="M142 270C153.628 305.98 161.206 313.826 195 331L244 316L205 164L181 120C181 120 166.404 134.072 156 142C144.795 150.538 137.06 159.827 134 183C130.94 206.173 130.371 234.02 142 270Z" fill="#666666" stroke="#CCCCCC"/>
<path d="M207 307C209.58 324.073 195 331 195 331C195 331 240.158 350.19 269 345C297.379 339.894 311.074 335.179 328 312C339.672 296.016 340 210 340 210C340 210 332.276 68.0239 322 54C311.724 39.9761 268 40 268 40V184H246V40C246 40 208.961 42.1733 194 54C183.042 62.6628 181 122 181 122C181 122 174.49 184.522 181 224C186.516 257.448 205.341 296.025 207 307Z" fill="#272727" stroke="#CCCCCC"/>
<path d="M266.756 149.244L257 158.512L247.244 149.244L257 139L266.756 149.244Z" stroke="#868686"/>
<path d="M268 40H246L257 50L268 40Z" stroke="#868686"/>
<path d="M281 101L286 97L281 93" stroke="#C7C7C7"/>
<path d="M290 97H301.468L355.48 97H392" stroke="#C7C7C7"/>
<circle r="6.5" transform="matrix(-1 0 0 1 283 97)" stroke="#C7C7C7"/>
<circle cx="184" cy="236" r="4" fill="#C7C7C7"/>
<path d="M180 236L169.769 236L121.582 236L89 236" stroke="#C7C7C7"/>
<circle cx="178" cy="178" r="4" fill="#C7C7C7"/>
<path d="M174 178L164.821 178L121.591 178L89 178" stroke="#C7C7C7"/>
<circle cx="179" cy="207" r="4" fill="#C7C7C7"/>
<path d="M175 207L165.843 207L122.713 207L89 207" stroke="#C7C7C7"/>
<circle cx="210" cy="64" r="4" fill="#C7C7C7"/>
<path d="M206 64L196.443 64L151.433 64L121 64" stroke="#C7C7C7"/>
<path d="M257 88.9842L257 17H342" stroke="#C7C7C7"/>
<circle cx="257" cy="89" r="4" fill="#C7C7C7"/>
<path d="M233 101L228 97L233 93" stroke="#C7C7C7"/>
<path d="M224 97L212.42 97L157.878 97L121 97" stroke="#C7C7C7"/>
<circle cx="231" cy="97" r="6.5" stroke="#C7C7C7"/>
<path d="M392 64L382.443 64L337.433 64L307 64" stroke="#C7C7C7"/>
<circle cx="303" cy="64" r="4" fill="#C7C7C7"/>
</svg>
