<svg width="473" height="347" viewBox="0 0 473 347" fill="none" xmlns="http://www.w3.org/2000/svg">
<g clip-path="url(#clip0_989_2756)">
<path d="M267 40H245V185H267V40Z" fill="#666666"/>
<path d="M245 79V73H256H267V79M245 79V85H256H267M245 79H256H267M267 79V85M267 85V91M267 91V97M267 91H256H245V97M245 97V103M245 97H256H267M267 97V103M267 103V109M267 103H256H245M245 103V109M245 109V115H256H267V109M245 109H256H267" stroke="#CCCCCC"/>
<path d="M141 270C152.628 305.98 160.206 313.826 194 331L243 316L204 164L180 120C180 120 165.404 134.072 155 142C143.795 150.538 136.06 159.827 133 183C129.94 206.173 129.371 234.02 141 270Z" fill="#666666" stroke="#CCCCCC"/>
<path d="M206 307C208.58 324.073 194 331 194 331C194 331 239.158 350.19 268 345C296.379 339.894 310.074 335.179 327 312C338.672 296.016 339 210 339 210C339 210 331.276 68.0239 321 54C310.724 39.9761 267 40 267 40V184H245V40C245 40 207.961 42.1733 193 54C182.042 62.6628 180 122 180 122C180 122 173.49 184.522 180 224C185.516 257.448 204.341 296.025 206 307Z" fill="#272727" stroke="#CCCCCC"/>
<path d="M265.756 149.244L256 158.512L246.244 149.244L256 139L265.756 149.244Z" stroke="#868686"/>
<path d="M267 40H245L256 50L267 40Z" stroke="#868686"/>
<circle cx="297" cy="97" r="4" fill="#C4C4C4"/>
<path d="M467 97L447.887 97L357.867 97L297 97" stroke="#C4C4C4"/>
<circle cx="215" cy="97" r="4" fill="#C4C4C4"/>
<path d="M215 97H195.999L106.509 97L46 97" stroke="#C4C4C4"/>
<circle cx="183" cy="236" r="4" fill="#C4C4C4"/>
<path d="M183 236L162.425 236L65.5213 236L0 236" stroke="#C4C4C4"/>
<circle cx="177" cy="178" r="4" fill="#C4C4C4"/>
<path d="M177 178L157.887 178L67.8667 178L0 178" stroke="#C4C4C4"/>
<circle cx="178" cy="207" r="4" fill="#C4C4C4"/>
<path d="M178 207L159.046 207L69.7788 207L0 207" stroke="#C4C4C4"/>
<path d="M472 64L452.887 64L362.867 64L302 64" stroke="#C4C4C4"/>
<circle cx="209" cy="64" r="4" fill="#C4C4C4"/>
<path d="M209 64L189.887 64L99.8668 64L39 64" stroke="#C4C4C4"/>
<path d="M256 88.9842L256 76.4844L256 17L426 17.0003" stroke="#C4C4C4"/>
<circle cx="256" cy="89" r="4" fill="#C4C4C4"/>
<circle cx="302" cy="64" r="4" fill="#C4C4C4"/>
</g>
<defs>
<clipPath id="clip0_989_2756">
<rect width="473" height="347" fill="white"/>
</clipPath>
</defs>
</svg>
