<?xml version="1.0" encoding="UTF-8" standalone="no"?>
<svg
   width="474"
   height="347"
   viewBox="0 0 474 347"
   fill="none"
   version="1.1"
   id="svg62"
   sodipodi:docname="mouse-light.svg"
   inkscape:version="1.1.2 (0a00cf5339, 2022-02-04)"
   xmlns:inkscape="http://www.inkscape.org/namespaces/inkscape"
   xmlns:sodipodi="http://sodipodi.sourceforge.net/DTD/sodipodi-0.dtd"
   xmlns="http://www.w3.org/2000/svg"
   xmlns:svg="http://www.w3.org/2000/svg">
  <defs
     id="defs66" />
  <sodipodi:namedview
     id="namedview64"
     pagecolor="#ffffff"
     bordercolor="#666666"
     borderopacity="1.0"
     inkscape:pageshadow="2"
     inkscape:pageopacity="0.0"
     inkscape:pagecheckerboard="0"
     showgrid="false"
     inkscape:zoom="2.5158501"
     inkscape:cx="152.23482"
     inkscape:cy="173.5"
     inkscape:window-width="1495"
     inkscape:window-height="1082"
     inkscape:window-x="707"
     inkscape:window-y="268"
     inkscape:window-maximized="0"
     inkscape:current-layer="svg62" />
  <path
     d="M268 40H246V185H268V40Z"
     fill="#DFDFDF"
     id="path2" />
  <path
     d="M246 79V73H257H268V79M246 79V85H257H268M246 79H257H268M268 79V85M268 85V91M268 91V97M268 91H257H246V97M246 97V103M246 97H257H268M268 97V103M268 103V109M268 103H257H246M246 103V109M246 109V115H257H268V109M246 109H257H268"
     stroke="black"
     id="path4" />
  <path
     d="M142 270C153.628 305.98 161.206 313.826 195 331L244 316L205 164L181 120C181 120 166.404 134.072 156 142C144.795 150.538 137.06 159.827 134 183C130.94 206.173 130.371 234.02 142 270Z"
     fill="#E5E5E5"
     stroke="black"
     id="path6" />
  <path
     d="M207 307C209.58 324.073 195 331 195 331C195 331 240.158 350.19 269 345C297.379 339.894 311.074 335.179 328 312C339.672 296.016 340 210 340 210C340 210 332.276 68.0239 322 54C311.724 39.9761 268 40 268 40V184H246V40C246 40 208.961 42.1733 194 54C183.042 62.6628 181 122 181 122C181 122 174.49 184.522 181 224C186.516 257.448 205.341 296.025 207 307Z"
     fill="#C4C4C4"
     stroke="black"
     id="path8" />
  <path
     d="M266.756 149.244L257 158.512L247.244 149.244L257 139L266.756 149.244Z"
     stroke="#868686"
     id="path10" />
  <path
     d="M268 40H246L257 50L268 40Z"
     stroke="#868686"
     id="path12" />
  <rect
     x="-0.5"
     y="0.5"
     width="17"
     height="17"
     rx="5.5"
     transform="matrix(-1 0 0 1 297 88)"
     fill="#63B1BC"
     stroke="#272727"
     id="rect16" />
  <path
     d="M468 97L448.887 97L358.867 97L298 97"
     stroke="#272727"
     id="path18" />
  <rect
     x="216.5"
     y="88.5"
     width="17"
     height="17"
     rx="5.5"
     fill="#63B1BC"
     stroke="#272727"
     id="rect20" />
  <path
     d="M216 97L196.887 97L106.867 97L46 97"
     stroke="#272727"
     id="path22" />
  <rect
     x="170.5"
     y="227.5"
     width="17"
     height="17"
     rx="5.5"
     fill="#63B1BC"
     stroke="#272727"
     id="rect26" />
  <path
     d="M170 236L150.887 236L60.8668 236L0 236"
     stroke="#272727"
     id="path28" />
  <path
     d="M170 178L150.887 178L60.8668 178L0 178"
     stroke="#272727"
     id="path34" />
  <rect
     x="170.5"
     y="169.5"
     width="17"
     height="17"
     rx="5.5"
     fill="#63B1BC"
     stroke="#272727"
     id="rect36" />
  <rect
     x="170.5"
     y="198.5"
     width="17"
     height="17"
     rx="5.5"
     fill="#63B1BC"
     stroke="#272727"
     id="rect40" />
  <path
     d="M170 207L150.887 207L60.8668 207L0 207"
     stroke="#272727"
     id="path42" />
  <rect
     x="-0.5"
     y="0.5"
     width="17"
     height="17"
     rx="5.5"
     transform="matrix(-1 0 0 1 303 55)"
     fill="#63B1BC"
     stroke="#272727"
     id="rect44" />
  <path
     d="M473 64L453.887 64L363.867 64L303 64"
     stroke="#272727"
     id="path46" />
  <rect
     x="210.5"
     y="55.5"
     width="17"
     height="17"
     rx="5.5"
     fill="#63B1BC"
     stroke="#272727"
     id="rect50" />
  <path
     d="M210 64L190.887 64L100.867 64L40 64"
     stroke="#272727"
     id="path52" />
  <path
     d="M257 88.9842L257 76.4844L257 17L427 17.0003"
     stroke="#272727"
     id="path58" />
  <rect
     x="-0.5"
     y="0.5"
     width="17"
     height="17"
     rx="5.5"
     transform="matrix(-1 0 0 1 265 82)"
     fill="#63B1BC"
     stroke="#272727"
     id="rect60" />
</svg>
