<svg width="256" height="256" viewBox="0 0 256 256" fill="none" xmlns="http://www.w3.org/2000/svg">
<path d="M29.9369 181.061C39.4959 205.802 44.2199 210.191 72 222L82 220V175.128L62 78C62 78 50.0514 87.5283 41.4986 92.9797C32.2878 98.8505 26.1461 104.637 23.6306 120.572C21.1151 136.506 20.3778 156.321 29.9369 181.061Z" fill="#1C8D9B"/>
<path d="M80.5583 205.734C82.662 217.355 72 222 72 222C72 222 99.1671 232 123 232C146 232 165.415 224.914 179.216 209.137C188.732 198.258 189 139.711 189 139.711C189 139.711 188 41.0002 176 33.0001C164 25 132.979 24 132.979 24H112.979C112.979 24 82 25.0001 69.9795 33C61.0676 38.9311 59.3592 79.8135 59.3592 79.8135C59.3592 79.8135 54.051 122.369 59.3592 149.24C63.8566 172.006 79.206 198.264 80.5583 205.734Z" fill="#48B9C7"/>
<path d="M133 24H113V122H133V24Z" fill="#1C8D9B"/>
<ellipse cx="185" cy="176" rx="49" ry="50" fill="#444444"/>
<circle cx="185" cy="175" r="49" fill="#ACACAC"/>
<path d="M176.171 141L175.393 150.219C172.443 151.301 169.701 152.873 167.283 154.867L158.829 150.922L150 166.078L157.676 171.361C157.403 172.893 157.261 174.445 157.252 176C157.253 177.561 157.388 179.12 157.656 180.658L150 185.922L158.829 201.078L167.264 197.143C169.69 199.128 172.438 200.69 175.393 201.762L176.171 211H193.829L194.607 201.781C197.557 200.698 200.299 199.127 202.717 197.133L211.171 201.078L220 185.922L212.324 180.639C212.597 179.107 212.739 177.555 212.748 176C212.747 174.439 212.612 172.88 212.344 171.342L220 166.078L211.171 150.922L202.737 154.857C200.311 152.872 197.562 151.31 194.608 150.238L193.829 141H176.171ZM185 166C187.676 166 190.243 167.054 192.135 168.929C194.027 170.804 195.09 173.348 195.09 176C195.09 178.652 194.027 181.196 192.135 183.071C190.243 184.946 187.676 186 185 186C182.324 186 179.758 184.946 177.866 183.071C175.973 181.196 174.91 178.652 174.91 176C174.91 173.348 175.973 170.804 177.866 168.929C179.758 167.054 182.324 166 185 166Z" fill="white"/>
</svg>
